<?xml version="1.0" encoding="UTF-8" standalone="no" ?>
<!DOCTYPE svg PUBLIC "-//W3C//DTD SVG 1.1//EN" "http://www.w3.org/Graphics/SVG/1.1/DTD/svg11.dtd">
<svg xmlns="http://www.w3.org/2000/svg" xmlns:xlink="http://www.w3.org/1999/xlink" version="1.1" width="1080" height="1080" viewBox="0 0 1080 1080" xml:space="preserve">
<desc>Created with Fabric.js 5.2.4</desc>
<defs>
</defs>
<g transform="matrix(1 0 0 1 540 540)" id="54ab4da8-1e4c-4d34-a70f-950cd3360e0c"  >
<rect style="stroke: none; stroke-width: 1; stroke-dasharray: none; stroke-linecap: butt; stroke-dashoffset: 0; stroke-linejoin: miter; stroke-miterlimit: 4; fill: rgb(255,255,255); fill-rule: nonzero; opacity: 1; visibility: hidden;" vector-effect="non-scaling-stroke"  x="-540" y="-540" rx="0" ry="0" width="1080" height="1080" />
</g>
<g transform="matrix(1 0 0 1 540 540)" id="084366c9-d4dc-4098-b38d-73f63f5ff153"  >
</g>
<g transform="matrix(1 0 0 1 540 540)" id="8c1fd4f6-fd54-45a4-891b-b67b96dbf693"  >
<path style="stroke: rgb(0,0,0); stroke-width: 0; stroke-dasharray: none; stroke-linecap: butt; stroke-dashoffset: 0; stroke-linejoin: miter; stroke-miterlimit: 4; fill: rgb(142,157,183); fill-rule: nonzero; opacity: 1;" vector-effect="non-scaling-stroke"  transform=" translate(-255.99, -256.04)" d="M 416 208 C 416 253.9 401.1 296.3 376 330.7 L 502.6 457.4 C 515.1 469.9 515.1 490.2 502.6 502.7 C 490.1 515.2 469.8 515.2 457.3 502.7 L 330.7 376 C 296.3 401.2 253.89999999999998 416 208 416 C 93.1 416 0 322.9 0 208 C 0 93.10000000000002 93.1 0 208 0 C 322.9 0 416 93.1 416 208 z M 208 352 C 287.5290039756343 352 352 287.5290039756343 352 208 C 352 128.47099602436575 287.5290039756343 64 208 64 C 128.47099602436575 64 64 128.47099602436575 64 208 C 64 287.5290039756343 128.47099602436575 352 208 352 z" stroke-linecap="round" />
</g>
<g transform="matrix(NaN NaN NaN NaN 0 0)"  >
<g style=""   >
</g>
</g>
</svg>